<svg xmlns="http://www.w3.org/2000/svg" version="1.1" xmlns:xlink="http://www.w3.org/1999/xlink" xmlns:svgjs="http://svgjs.com/svgjs" width="1440" height="560" preserveAspectRatio="none" viewBox="0 0 1440 560"><g mask="url(&quot;#SvgjsMask1005&quot;)" fill="none"><rect width="1440" height="560" x="0" y="0" fill="url(#SvgjsLinearGradient1006)"></rect><path d="M-97.39 353.39L-97.39 353.39" stroke="#132e65" stroke-width="1.5"></path><path d="M-97.39 353.39L-62.81 551.51" stroke="#132e65" stroke-width="1.5"></path><path d="M-97.39 353.39L110.1 537.84" stroke="#132e65" stroke-width="1.5"></path><path d="M-97.39 353.39L-74.85 661.57" stroke="#132e65" stroke-width="1.5"></path><path d="M-97.39 353.39L246.1 343.01" stroke="#132e65" stroke-width="1.5"></path><path d="M-97.39 353.39L79.54 658.63" stroke="#132e65" stroke-width="1.5"></path><path d="M-97.39 353.39L235.16 558.03" stroke="#132e65" stroke-width="1.5"></path><path d="M-62.81 551.51L-62.81 551.51" stroke="#132e65" stroke-width="1.5"></path><path d="M-62.81 551.51L-74.85 661.57" stroke="#132e65" stroke-width="1.5"></path><path d="M-62.81 551.51L110.1 537.84" stroke="#132e65" stroke-width="1.5"></path><path d="M-62.81 551.51L79.54 658.63" stroke="#132e65" stroke-width="1.5"></path><path d="M-62.81 551.51L235.16 558.03" stroke="#132e65" stroke-width="1.5"></path><path d="M-74.85 661.57L-74.85 661.57" stroke="#132e65" stroke-width="1.5"></path><path d="M-74.85 661.57L79.54 658.63" stroke="#132e65" stroke-width="1.5"></path><path d="M-74.85 661.57L110.1 537.84" stroke="#132e65" stroke-width="1.5"></path><path d="M-74.85 661.57L198.17 709.4" stroke="#132e65" stroke-width="1.5"></path><path d="M110.1 537.84L110.1 537.84" stroke="#132e65" stroke-width="1.5"></path><path d="M110.1 537.84L79.54 658.63" stroke="#132e65" stroke-width="1.5"></path><path d="M110.1 537.84L235.16 558.03" stroke="#132e65" stroke-width="1.5"></path><path d="M110.1 537.84L198.17 709.4" stroke="#132e65" stroke-width="1.5"></path><path d="M79.54 658.63L79.54 658.63" stroke="#132e65" stroke-width="1.5"></path><path d="M79.54 658.63L198.17 709.4" stroke="#132e65" stroke-width="1.5"></path><path d="M246.1 343.01L246.1 343.01" stroke="#132e65" stroke-width="1.5"></path><path d="M246.1 343.01L348.01 355.95" stroke="#132e65" stroke-width="1.5"></path><path d="M246.1 343.01L235.16 558.03" stroke="#132e65" stroke-width="1.5"></path><path d="M246.1 343.01L411.73 493.72" stroke="#132e65" stroke-width="1.5"></path><path d="M246.1 343.01L110.1 537.84" stroke="#132e65" stroke-width="1.5"></path><path d="M246.1 343.01L494.59 348.42" stroke="#132e65" stroke-width="1.5"></path><path d="M235.16 558.03L235.16 558.03" stroke="#132e65" stroke-width="1.5"></path><path d="M198.17 709.4L198.17 709.4" stroke="#132e65" stroke-width="1.5"></path><path d="M198.17 709.4L235.16 558.03" stroke="#132e65" stroke-width="1.5"></path><path d="M348.01 355.95L348.01 355.95" stroke="#132e65" stroke-width="1.5"></path><path d="M348.01 355.95L494.59 348.42" stroke="#132e65" stroke-width="1.5"></path><path d="M348.01 355.95L411.73 493.72" stroke="#132e65" stroke-width="1.5"></path><path d="M411.73 493.72L411.73 493.72" stroke="#132e65" stroke-width="1.5"></path><path d="M411.73 493.72L508.67 546.01" stroke="#132e65" stroke-width="1.5"></path><path d="M411.73 493.72L494.59 348.42" stroke="#132e65" stroke-width="1.5"></path><path d="M411.73 493.72L375 676.67" stroke="#132e65" stroke-width="1.5"></path><path d="M411.73 493.72L235.16 558.03" stroke="#132e65" stroke-width="1.5"></path><path d="M375 676.67L375 676.67" stroke="#132e65" stroke-width="1.5"></path><path d="M375 676.67L494.86 695.18" stroke="#132e65" stroke-width="1.5"></path><path d="M375 676.67L198.17 709.4" stroke="#132e65" stroke-width="1.5"></path><path d="M375 676.67L235.16 558.03" stroke="#132e65" stroke-width="1.5"></path><path d="M494.59 348.42L494.59 348.42" stroke="#132e65" stroke-width="1.5"></path><path d="M494.59 348.42L508.67 546.01" stroke="#132e65" stroke-width="1.5"></path><path d="M494.59 348.42L691.29 407.77" stroke="#132e65" stroke-width="1.5"></path><path d="M508.67 546.01L508.67 546.01" stroke="#132e65" stroke-width="1.5"></path><path d="M508.67 546.01L494.86 695.18" stroke="#132e65" stroke-width="1.5"></path><path d="M508.67 546.01L375 676.67" stroke="#132e65" stroke-width="1.5"></path><path d="M508.67 546.01L691.29 407.77" stroke="#132e65" stroke-width="1.5"></path><path d="M508.67 546.01L348.01 355.95" stroke="#132e65" stroke-width="1.5"></path><path d="M494.86 695.18L494.86 695.18" stroke="#132e65" stroke-width="1.5"></path><path d="M691.29 407.77L691.29 407.77" stroke="#132e65" stroke-width="1.5"></path><path d="M691.29 407.77L802.55 498.17" stroke="#132e65" stroke-width="1.5"></path><path d="M691.29 407.77L844.38 251.04" stroke="#132e65" stroke-width="1.5"></path><path d="M844.38 251.04L844.38 251.04" stroke="#132e65" stroke-width="1.5"></path><path d="M844.38 251.04L975.6 197.53" stroke="#132e65" stroke-width="1.5"></path><path d="M844.38 251.04L969.31 394.68" stroke="#132e65" stroke-width="1.5"></path><path d="M844.38 251.04L956.82 65.86" stroke="#132e65" stroke-width="1.5"></path><path d="M802.55 498.17L802.55 498.17" stroke="#132e65" stroke-width="1.5"></path><path d="M802.55 498.17L982.08 513.21" stroke="#132e65" stroke-width="1.5"></path><path d="M802.55 498.17L806.75 682.89" stroke="#132e65" stroke-width="1.5"></path><path d="M802.55 498.17L969.31 394.68" stroke="#132e65" stroke-width="1.5"></path><path d="M802.55 498.17L977.99 662.22" stroke="#132e65" stroke-width="1.5"></path><path d="M806.75 682.89L806.75 682.89" stroke="#132e65" stroke-width="1.5"></path><path d="M806.75 682.89L977.99 662.22" stroke="#132e65" stroke-width="1.5"></path><path d="M806.75 682.89L982.08 513.21" stroke="#132e65" stroke-width="1.5"></path><path d="M806.75 682.89L691.29 407.77" stroke="#132e65" stroke-width="1.5"></path><path d="M956.82 65.86L956.82 65.86" stroke="#132e65" stroke-width="1.5"></path><path d="M956.82 65.86L975.6 197.53" stroke="#132e65" stroke-width="1.5"></path><path d="M956.82 65.86L1123.51 53.9" stroke="#132e65" stroke-width="1.5"></path><path d="M956.82 65.86L1120.32 190.07" stroke="#132e65" stroke-width="1.5"></path><path d="M975.6 197.53L975.6 197.53" stroke="#132e65" stroke-width="1.5"></path><path d="M975.6 197.53L1120.32 190.07" stroke="#132e65" stroke-width="1.5"></path><path d="M975.6 197.53L969.31 394.68" stroke="#132e65" stroke-width="1.5"></path><path d="M975.6 197.53L1123.51 53.9" stroke="#132e65" stroke-width="1.5"></path><path d="M975.6 197.53L1090.12 396.46" stroke="#132e65" stroke-width="1.5"></path><path d="M969.31 394.68L969.31 394.68" stroke="#132e65" stroke-width="1.5"></path><path d="M969.31 394.68L982.08 513.21" stroke="#132e65" stroke-width="1.5"></path><path d="M969.31 394.68L1090.12 396.46" stroke="#132e65" stroke-width="1.5"></path><path d="M982.08 513.21L982.08 513.21" stroke="#132e65" stroke-width="1.5"></path><path d="M982.08 513.21L977.99 662.22" stroke="#132e65" stroke-width="1.5"></path><path d="M982.08 513.21L1135.72 504.39" stroke="#132e65" stroke-width="1.5"></path><path d="M982.08 513.21L1090.12 396.46" stroke="#132e65" stroke-width="1.5"></path><path d="M982.08 513.21L1123.2 659.09" stroke="#132e65" stroke-width="1.5"></path><path d="M977.99 662.22L977.99 662.22" stroke="#132e65" stroke-width="1.5"></path><path d="M977.99 662.22L1123.2 659.09" stroke="#132e65" stroke-width="1.5"></path><path d="M977.99 662.22L1135.72 504.39" stroke="#132e65" stroke-width="1.5"></path><path d="M977.99 662.22L969.31 394.68" stroke="#132e65" stroke-width="1.5"></path><path d="M1133.94 -78.21L1133.94 -78.21" stroke="#132e65" stroke-width="1.5"></path><path d="M1133.94 -78.21L1257.55 -97.9" stroke="#132e65" stroke-width="1.5"></path><path d="M1133.94 -78.21L1123.51 53.9" stroke="#132e65" stroke-width="1.5"></path><path d="M1133.94 -78.21L1252.72 105.56" stroke="#132e65" stroke-width="1.5"></path><path d="M1133.94 -78.21L956.82 65.86" stroke="#132e65" stroke-width="1.5"></path><path d="M1133.94 -78.21L1120.32 190.07" stroke="#132e65" stroke-width="1.5"></path><path d="M1133.94 -78.21L975.6 197.53" stroke="#132e65" stroke-width="1.5"></path><path d="M1123.51 53.9L1123.51 53.9" stroke="#132e65" stroke-width="1.5"></path><path d="M1123.51 53.9L1120.32 190.07" stroke="#132e65" stroke-width="1.5"></path><path d="M1120.32 190.07L1120.32 190.07" stroke="#132e65" stroke-width="1.5"></path><path d="M1120.32 190.07L1252.72 105.56" stroke="#132e65" stroke-width="1.5"></path><path d="M1120.32 190.07L1297.8 244.21" stroke="#132e65" stroke-width="1.5"></path><path d="M1120.32 190.07L1090.12 396.46" stroke="#132e65" stroke-width="1.5"></path><path d="M1090.12 396.46L1090.12 396.46" stroke="#132e65" stroke-width="1.5"></path><path d="M1090.12 396.46L1135.72 504.39" stroke="#132e65" stroke-width="1.5"></path><path d="M1135.72 504.39L1135.72 504.39" stroke="#132e65" stroke-width="1.5"></path><path d="M1135.72 504.39L1123.2 659.09" stroke="#132e65" stroke-width="1.5"></path><path d="M1123.2 659.09L1123.2 659.09" stroke="#132e65" stroke-width="1.5"></path><path d="M1123.2 659.09L1286.32 654.5" stroke="#132e65" stroke-width="1.5"></path><path d="M1123.2 659.09L1284.17 556.44" stroke="#132e65" stroke-width="1.5"></path><path d="M1257.55 -97.9L1257.55 -97.9" stroke="#132e65" stroke-width="1.5"></path><path d="M1257.55 -97.9L1123.51 53.9" stroke="#132e65" stroke-width="1.5"></path><path d="M1257.55 -97.9L1252.72 105.56" stroke="#132e65" stroke-width="1.5"></path><path d="M1257.55 -97.9L1434.4 52.44" stroke="#132e65" stroke-width="1.5"></path><path d="M1257.55 -97.9L1120.32 190.07" stroke="#132e65" stroke-width="1.5"></path><path d="M1257.55 -97.9L956.82 65.86" stroke="#132e65" stroke-width="1.5"></path><path d="M1252.72 105.56L1252.72 105.56" stroke="#132e65" stroke-width="1.5"></path><path d="M1252.72 105.56L1123.51 53.9" stroke="#132e65" stroke-width="1.5"></path><path d="M1252.72 105.56L1297.8 244.21" stroke="#132e65" stroke-width="1.5"></path><path d="M1297.8 244.21L1297.8 244.21" stroke="#132e65" stroke-width="1.5"></path><path d="M1297.8 244.21L1402.24 236.3" stroke="#132e65" stroke-width="1.5"></path><path d="M1297.8 244.21L1388.5 389.42" stroke="#132e65" stroke-width="1.5"></path><path d="M1284.17 556.44L1284.17 556.44" stroke="#132e65" stroke-width="1.5"></path><path d="M1284.17 556.44L1286.32 654.5" stroke="#132e65" stroke-width="1.5"></path><path d="M1284.17 556.44L1135.72 504.39" stroke="#132e65" stroke-width="1.5"></path><path d="M1284.17 556.44L1388.15 676.86" stroke="#132e65" stroke-width="1.5"></path><path d="M1284.17 556.44L1456.39 550.53" stroke="#132e65" stroke-width="1.5"></path><path d="M1286.32 654.5L1286.32 654.5" stroke="#132e65" stroke-width="1.5"></path><path d="M1286.32 654.5L1388.15 676.86" stroke="#132e65" stroke-width="1.5"></path><path d="M1434.4 52.44L1434.4 52.44" stroke="#132e65" stroke-width="1.5"></path><path d="M1434.4 52.44L1595.2 72.98" stroke="#132e65" stroke-width="1.5"></path><path d="M1434.4 52.44L1402.24 236.3" stroke="#132e65" stroke-width="1.5"></path><path d="M1434.4 52.44L1252.72 105.56" stroke="#132e65" stroke-width="1.5"></path><path d="M1434.4 52.44L1605.64 -90.43" stroke="#132e65" stroke-width="1.5"></path><path d="M1434.4 52.44L1544.98 256.68" stroke="#132e65" stroke-width="1.5"></path><path d="M1402.24 236.3L1402.24 236.3" stroke="#132e65" stroke-width="1.5"></path><path d="M1402.24 236.3L1544.98 256.68" stroke="#132e65" stroke-width="1.5"></path><path d="M1402.24 236.3L1388.5 389.42" stroke="#132e65" stroke-width="1.5"></path><path d="M1402.24 236.3L1252.72 105.56" stroke="#132e65" stroke-width="1.5"></path><path d="M1402.24 236.3L1566.14 350.88" stroke="#132e65" stroke-width="1.5"></path><path d="M1388.5 389.42L1388.5 389.42" stroke="#132e65" stroke-width="1.5"></path><path d="M1388.5 389.42L1456.39 550.53" stroke="#132e65" stroke-width="1.5"></path><path d="M1388.5 389.42L1566.14 350.88" stroke="#132e65" stroke-width="1.5"></path><path d="M1388.5 389.42L1284.17 556.44" stroke="#132e65" stroke-width="1.5"></path><path d="M1456.39 550.53L1456.39 550.53" stroke="#132e65" stroke-width="1.5"></path><path d="M1456.39 550.53L1388.15 676.86" stroke="#132e65" stroke-width="1.5"></path><path d="M1388.15 676.86L1388.15 676.86" stroke="#132e65" stroke-width="1.5"></path><path d="M1388.15 676.86L1601.17 638.61" stroke="#132e65" stroke-width="1.5"></path><path d="M1388.15 676.86L1123.2 659.09" stroke="#132e65" stroke-width="1.5"></path><path d="M1605.64 -90.43L1605.64 -90.43" stroke="#132e65" stroke-width="1.5"></path><path d="M1605.64 -90.43L1595.2 72.98" stroke="#132e65" stroke-width="1.5"></path><path d="M1605.64 -90.43L1257.55 -97.9" stroke="#132e65" stroke-width="1.5"></path><path d="M1605.64 -90.43L1544.98 256.68" stroke="#132e65" stroke-width="1.5"></path><path d="M1605.64 -90.43L1402.24 236.3" stroke="#132e65" stroke-width="1.5"></path><path d="M1605.64 -90.43L1252.72 105.56" stroke="#132e65" stroke-width="1.5"></path><path d="M1595.2 72.98L1595.2 72.98" stroke="#132e65" stroke-width="1.5"></path><path d="M1595.2 72.98L1544.98 256.68" stroke="#132e65" stroke-width="1.5"></path><path d="M1544.98 256.68L1544.98 256.68" stroke="#132e65" stroke-width="1.5"></path><path d="M1544.98 256.68L1566.14 350.88" stroke="#132e65" stroke-width="1.5"></path><path d="M1566.14 350.88L1566.14 350.88" stroke="#132e65" stroke-width="1.5"></path><path d="M1566.14 350.88L1603.1 495.41" stroke="#132e65" stroke-width="1.5"></path><path d="M1603.1 495.41L1603.1 495.41" stroke="#132e65" stroke-width="1.5"></path><path d="M1603.1 495.41L1601.17 638.61" stroke="#132e65" stroke-width="1.5"></path><path d="M1603.1 495.41L1456.39 550.53" stroke="#132e65" stroke-width="1.5"></path><path d="M1603.1 495.41L1388.5 389.42" stroke="#132e65" stroke-width="1.5"></path><path d="M1603.1 495.41L1544.98 256.68" stroke="#132e65" stroke-width="1.5"></path><path d="M1601.17 638.61L1601.17 638.61" stroke="#132e65" stroke-width="1.5"></path><path d="M1601.17 638.61L1456.39 550.53" stroke="#132e65" stroke-width="1.5"></path><path d="M1601.17 638.61L1566.14 350.88" stroke="#132e65" stroke-width="1.5"></path><path d="M1601.17 638.61L1286.32 654.5" stroke="#132e65" stroke-width="1.5"></path><path d="M1601.17 638.61L1284.17 556.44" stroke="#132e65" stroke-width="1.5"></path><circle r="5" cx="-97.39" cy="353.39" fill="#132e65"></circle><circle r="5" cx="-62.81" cy="551.51" fill="#132e65"></circle><circle r="5" cx="-74.85" cy="661.57" fill="#132e65"></circle><circle r="5" cx="110.1" cy="537.84" fill="#132e65"></circle><circle r="5" cx="79.54" cy="658.63" fill="#132e65"></circle><circle r="5" cx="246.1" cy="343.01" fill="#132e65"></circle><circle r="5" cx="235.16" cy="558.03" fill="#132e65"></circle><circle r="5" cx="198.17" cy="709.4" fill="#132e65"></circle><circle r="5" cx="348.01" cy="355.95" fill="#132e65"></circle><circle r="5" cx="411.73" cy="493.72" fill="#132e65"></circle><circle r="5" cx="375" cy="676.67" fill="#132e65"></circle><circle r="5" cx="494.59" cy="348.42" fill="#132e65"></circle><circle r="5" cx="508.67" cy="546.01" fill="#132e65"></circle><circle r="5" cx="494.86" cy="695.18" fill="#132e65"></circle><circle r="5" cx="691.29" cy="407.77" fill="#132e65"></circle><circle r="5" cx="844.38" cy="251.04" fill="#132e65"></circle><circle r="5" cx="802.55" cy="498.17" fill="#132e65"></circle><circle r="5" cx="806.75" cy="682.89" fill="#132e65"></circle><circle r="5" cx="956.82" cy="65.86" fill="#132e65"></circle><circle r="5" cx="975.6" cy="197.53" fill="#132e65"></circle><circle r="5" cx="969.31" cy="394.68" fill="#132e65"></circle><circle r="5" cx="982.08" cy="513.21" fill="#132e65"></circle><circle r="5" cx="977.99" cy="662.22" fill="#132e65"></circle><circle r="5" cx="1133.94" cy="-78.21" fill="#132e65"></circle><circle r="5" cx="1123.51" cy="53.9" fill="#132e65"></circle><circle r="5" cx="1120.32" cy="190.07" fill="#132e65"></circle><circle r="5" cx="1090.12" cy="396.46" fill="#132e65"></circle><circle r="5" cx="1135.72" cy="504.39" fill="#132e65"></circle><circle r="5" cx="1123.2" cy="659.09" fill="#132e65"></circle><circle r="5" cx="1257.55" cy="-97.9" fill="#132e65"></circle><circle r="5" cx="1252.72" cy="105.56" fill="#132e65"></circle><circle r="5" cx="1297.8" cy="244.21" fill="#132e65"></circle><circle r="5" cx="1284.17" cy="556.44" fill="#132e65"></circle><circle r="5" cx="1286.32" cy="654.5" fill="#132e65"></circle><circle r="5" cx="1434.4" cy="52.44" fill="#132e65"></circle><circle r="5" cx="1402.24" cy="236.3" fill="#132e65"></circle><circle r="5" cx="1388.5" cy="389.42" fill="#132e65"></circle><circle r="5" cx="1456.39" cy="550.53" fill="#132e65"></circle><circle r="5" cx="1388.15" cy="676.86" fill="#132e65"></circle><circle r="5" cx="1605.64" cy="-90.43" fill="#132e65"></circle><circle r="5" cx="1595.2" cy="72.98" fill="#132e65"></circle><circle r="5" cx="1544.98" cy="256.68" fill="#132e65"></circle><circle r="5" cx="1566.14" cy="350.88" fill="#132e65"></circle><circle r="5" cx="1603.1" cy="495.41" fill="#132e65"></circle><circle r="5" cx="1601.17" cy="638.61" fill="#132e65"></circle><path d="M-70.86 550.55L-70.86 550.55" stroke="hsl(228.5, 77.2%, 51.5%)" stroke-width="1.5"></path><path d="M-70.86 550.55L-101.67 668.38" stroke="hsl(228.5, 77.2%, 51.5%)" stroke-width="1.5"></path><path d="M-70.86 550.55L56.3 500.77" stroke="hsl(228.5, 77.2%, 51.5%)" stroke-width="1.5"></path><path d="M-70.86 550.55L45.98 648.77" stroke="hsl(228.5, 77.2%, 51.5%)" stroke-width="1.5"></path><path d="M-70.86 550.55L210.49 661.86" stroke="hsl(228.5, 77.2%, 51.5%)" stroke-width="1.5"></path><path d="M45.98 648.77L45.98 648.77" stroke="hsl(228.5, 77.2%, 51.5%)" stroke-width="1.5"></path><path d="M45.98 648.77L56.3 500.77" stroke="hsl(228.5, 77.2%, 51.5%)" stroke-width="1.5"></path><path d="M45.98 648.77L-101.67 668.38" stroke="hsl(228.5, 77.2%, 51.5%)" stroke-width="1.5"></path><path d="M255 515.2L255 515.2" stroke="hsl(228.5, 77.2%, 51.5%)" stroke-width="1.5"></path><path d="M255 515.2L360.21 535.33" stroke="hsl(228.5, 77.2%, 51.5%)" stroke-width="1.5"></path><path d="M255 515.2L210.49 661.86" stroke="hsl(228.5, 77.2%, 51.5%)" stroke-width="1.5"></path><path d="M255 515.2L374.54 665.31" stroke="hsl(228.5, 77.2%, 51.5%)" stroke-width="1.5"></path><path d="M255 515.2L56.3 500.77" stroke="hsl(228.5, 77.2%, 51.5%)" stroke-width="1.5"></path><path d="M255 515.2L45.98 648.77" stroke="hsl(228.5, 77.2%, 51.5%)" stroke-width="1.5"></path><path d="M255 515.2L514.66 550.03" stroke="hsl(228.5, 77.2%, 51.5%)" stroke-width="1.5"></path><path d="M514.66 550.03L514.66 550.03" stroke="hsl(228.5, 77.2%, 51.5%)" stroke-width="1.5"></path><path d="M514.66 550.03L653.3 510.62" stroke="hsl(228.5, 77.2%, 51.5%)" stroke-width="1.5"></path><path d="M514.66 550.03L360.21 535.33" stroke="hsl(228.5, 77.2%, 51.5%)" stroke-width="1.5"></path><path d="M514.66 550.03L374.54 665.31" stroke="hsl(228.5, 77.2%, 51.5%)" stroke-width="1.5"></path><path d="M514.66 550.03L673.56 665.7" stroke="hsl(228.5, 77.2%, 51.5%)" stroke-width="1.5"></path><path d="M673.56 665.7L673.56 665.7" stroke="hsl(228.5, 77.2%, 51.5%)" stroke-width="1.5"></path><path d="M673.56 665.7L653.3 510.62" stroke="hsl(228.5, 77.2%, 51.5%)" stroke-width="1.5"></path><path d="M673.56 665.7L841.39 678.29" stroke="hsl(228.5, 77.2%, 51.5%)" stroke-width="1.5"></path><path d="M673.56 665.7L835.94 515.36" stroke="hsl(228.5, 77.2%, 51.5%)" stroke-width="1.5"></path><path d="M673.56 665.7L961.63 652.86" stroke="hsl(228.5, 77.2%, 51.5%)" stroke-width="1.5"></path><path d="M673.56 665.7L374.54 665.31" stroke="hsl(228.5, 77.2%, 51.5%)" stroke-width="1.5"></path><path d="M841.39 678.29L841.39 678.29" stroke="hsl(228.5, 77.2%, 51.5%)" stroke-width="1.5"></path><path d="M841.39 678.29L961.63 652.86" stroke="hsl(228.5, 77.2%, 51.5%)" stroke-width="1.5"></path><path d="M841.39 678.29L835.94 515.36" stroke="hsl(228.5, 77.2%, 51.5%)" stroke-width="1.5"></path><path d="M1149.05 251.13L1149.05 251.13" stroke="hsl(228.5, 77.2%, 51.5%)" stroke-width="1.5"></path><path d="M1149.05 251.13L1161.41 347.71" stroke="hsl(228.5, 77.2%, 51.5%)" stroke-width="1.5"></path><path d="M1149.05 251.13L1153.59 112.13" stroke="hsl(228.5, 77.2%, 51.5%)" stroke-width="1.5"></path><path d="M1149.05 251.13L1291.54 188.25" stroke="hsl(228.5, 77.2%, 51.5%)" stroke-width="1.5"></path><path d="M1161.41 347.71L1161.41 347.71" stroke="hsl(228.5, 77.2%, 51.5%)" stroke-width="1.5"></path><path d="M1161.41 347.71L1240.54 412.44" stroke="hsl(228.5, 77.2%, 51.5%)" stroke-width="1.5"></path><path d="M1161.41 347.71L1116.07 515.07" stroke="hsl(228.5, 77.2%, 51.5%)" stroke-width="1.5"></path><path d="M1161.41 347.71L1286.13 510.33" stroke="hsl(228.5, 77.2%, 51.5%)" stroke-width="1.5"></path><path d="M1286.13 510.33L1286.13 510.33" stroke="hsl(228.5, 77.2%, 51.5%)" stroke-width="1.5"></path><path d="M1286.13 510.33L1240.54 412.44" stroke="hsl(228.5, 77.2%, 51.5%)" stroke-width="1.5"></path><path d="M1286.13 510.33L1301.06 657.19" stroke="hsl(228.5, 77.2%, 51.5%)" stroke-width="1.5"></path><path d="M1286.13 510.33L1116.07 515.07" stroke="hsl(228.5, 77.2%, 51.5%)" stroke-width="1.5"></path><path d="M1394.98 349.8L1394.98 349.8" stroke="hsl(228.5, 77.2%, 51.5%)" stroke-width="1.5"></path><path d="M1394.98 349.8L1451.38 219.82" stroke="hsl(228.5, 77.2%, 51.5%)" stroke-width="1.5"></path><path d="M1394.98 349.8L1240.54 412.44" stroke="hsl(228.5, 77.2%, 51.5%)" stroke-width="1.5"></path><path d="M1394.98 349.8L1291.54 188.25" stroke="hsl(228.5, 77.2%, 51.5%)" stroke-width="1.5"></path><path d="M1394.98 349.8L1286.13 510.33" stroke="hsl(228.5, 77.2%, 51.5%)" stroke-width="1.5"></path><path d="M-101.67 668.38L-101.67 668.38" stroke="hsl(228.5, 77.2%, 51.5%)" stroke-width="1.5"></path><path d="M-101.67 668.38L56.3 500.77" stroke="hsl(228.5, 77.2%, 51.5%)" stroke-width="1.5"></path><path d="M-101.67 668.38L210.49 661.86" stroke="hsl(228.5, 77.2%, 51.5%)" stroke-width="1.5"></path><path d="M-101.67 668.38L255 515.2" stroke="hsl(228.5, 77.2%, 51.5%)" stroke-width="1.5"></path><path d="M56.3 500.77L56.3 500.77" stroke="hsl(228.5, 77.2%, 51.5%)" stroke-width="1.5"></path><path d="M56.3 500.77L210.49 661.86" stroke="hsl(228.5, 77.2%, 51.5%)" stroke-width="1.5"></path><path d="M56.3 500.77L360.21 535.33" stroke="hsl(228.5, 77.2%, 51.5%)" stroke-width="1.5"></path><path d="M210.49 661.86L210.49 661.86" stroke="hsl(228.5, 77.2%, 51.5%)" stroke-width="1.5"></path><path d="M210.49 661.86L374.54 665.31" stroke="hsl(228.5, 77.2%, 51.5%)" stroke-width="1.5"></path><path d="M210.49 661.86L45.98 648.77" stroke="hsl(228.5, 77.2%, 51.5%)" stroke-width="1.5"></path><path d="M210.49 661.86L360.21 535.33" stroke="hsl(228.5, 77.2%, 51.5%)" stroke-width="1.5"></path><path d="M360.21 535.33L360.21 535.33" stroke="hsl(228.5, 77.2%, 51.5%)" stroke-width="1.5"></path><path d="M360.21 535.33L374.54 665.31" stroke="hsl(228.5, 77.2%, 51.5%)" stroke-width="1.5"></path><path d="M360.21 535.33L653.3 510.62" stroke="hsl(228.5, 77.2%, 51.5%)" stroke-width="1.5"></path><path d="M374.54 665.31L374.54 665.31" stroke="hsl(228.5, 77.2%, 51.5%)" stroke-width="1.5"></path><path d="M653.3 510.62L653.3 510.62" stroke="hsl(228.5, 77.2%, 51.5%)" stroke-width="1.5"></path><path d="M653.3 510.62L835.94 515.36" stroke="hsl(228.5, 77.2%, 51.5%)" stroke-width="1.5"></path><path d="M653.3 510.62L805.74 383.51" stroke="hsl(228.5, 77.2%, 51.5%)" stroke-width="1.5"></path><path d="M653.3 510.62L841.39 678.29" stroke="hsl(228.5, 77.2%, 51.5%)" stroke-width="1.5"></path><path d="M805.74 383.51L805.74 383.51" stroke="hsl(228.5, 77.2%, 51.5%)" stroke-width="1.5"></path><path d="M805.74 383.51L835.94 515.36" stroke="hsl(228.5, 77.2%, 51.5%)" stroke-width="1.5"></path><path d="M805.74 383.51L955.82 386.28" stroke="hsl(228.5, 77.2%, 51.5%)" stroke-width="1.5"></path><path d="M805.74 383.51L965 523.68" stroke="hsl(228.5, 77.2%, 51.5%)" stroke-width="1.5"></path><path d="M805.74 383.51L841.39 678.29" stroke="hsl(228.5, 77.2%, 51.5%)" stroke-width="1.5"></path><path d="M835.94 515.36L835.94 515.36" stroke="hsl(228.5, 77.2%, 51.5%)" stroke-width="1.5"></path><path d="M835.94 515.36L965 523.68" stroke="hsl(228.5, 77.2%, 51.5%)" stroke-width="1.5"></path><path d="M835.94 515.36L955.82 386.28" stroke="hsl(228.5, 77.2%, 51.5%)" stroke-width="1.5"></path><path d="M955.82 386.28L955.82 386.28" stroke="hsl(228.5, 77.2%, 51.5%)" stroke-width="1.5"></path><path d="M955.82 386.28L965 523.68" stroke="hsl(228.5, 77.2%, 51.5%)" stroke-width="1.5"></path><path d="M955.82 386.28L1116.07 515.07" stroke="hsl(228.5, 77.2%, 51.5%)" stroke-width="1.5"></path><path d="M955.82 386.28L1161.41 347.71" stroke="hsl(228.5, 77.2%, 51.5%)" stroke-width="1.5"></path><path d="M955.82 386.28L1149.05 251.13" stroke="hsl(228.5, 77.2%, 51.5%)" stroke-width="1.5"></path><path d="M965 523.68L965 523.68" stroke="hsl(228.5, 77.2%, 51.5%)" stroke-width="1.5"></path><path d="M965 523.68L961.63 652.86" stroke="hsl(228.5, 77.2%, 51.5%)" stroke-width="1.5"></path><path d="M965 523.68L1116.07 515.07" stroke="hsl(228.5, 77.2%, 51.5%)" stroke-width="1.5"></path><path d="M961.63 652.86L961.63 652.86" stroke="hsl(228.5, 77.2%, 51.5%)" stroke-width="1.5"></path><path d="M961.63 652.86L1092.91 670.82" stroke="hsl(228.5, 77.2%, 51.5%)" stroke-width="1.5"></path><path d="M961.63 652.86L835.94 515.36" stroke="hsl(228.5, 77.2%, 51.5%)" stroke-width="1.5"></path><path d="M961.63 652.86L1116.07 515.07" stroke="hsl(228.5, 77.2%, 51.5%)" stroke-width="1.5"></path><path d="M1153.59 112.13L1153.59 112.13" stroke="hsl(228.5, 77.2%, 51.5%)" stroke-width="1.5"></path><path d="M1153.59 112.13L1292.01 87.89" stroke="hsl(228.5, 77.2%, 51.5%)" stroke-width="1.5"></path><path d="M1153.59 112.13L1291.54 188.25" stroke="hsl(228.5, 77.2%, 51.5%)" stroke-width="1.5"></path><path d="M1153.59 112.13L1295.32 -70.16" stroke="hsl(228.5, 77.2%, 51.5%)" stroke-width="1.5"></path><path d="M1116.07 515.07L1116.07 515.07" stroke="hsl(228.5, 77.2%, 51.5%)" stroke-width="1.5"></path><path d="M1116.07 515.07L1092.91 670.82" stroke="hsl(228.5, 77.2%, 51.5%)" stroke-width="1.5"></path><path d="M1116.07 515.07L1240.54 412.44" stroke="hsl(228.5, 77.2%, 51.5%)" stroke-width="1.5"></path><path d="M1092.91 670.82L1092.91 670.82" stroke="hsl(228.5, 77.2%, 51.5%)" stroke-width="1.5"></path><path d="M1092.91 670.82L965 523.68" stroke="hsl(228.5, 77.2%, 51.5%)" stroke-width="1.5"></path><path d="M1295.32 -70.16L1295.32 -70.16" stroke="hsl(228.5, 77.2%, 51.5%)" stroke-width="1.5"></path><path d="M1295.32 -70.16L1441.71 -94.51" stroke="hsl(228.5, 77.2%, 51.5%)" stroke-width="1.5"></path><path d="M1295.32 -70.16L1292.01 87.89" stroke="hsl(228.5, 77.2%, 51.5%)" stroke-width="1.5"></path><path d="M1292.01 87.89L1292.01 87.89" stroke="hsl(228.5, 77.2%, 51.5%)" stroke-width="1.5"></path><path d="M1292.01 87.89L1291.54 188.25" stroke="hsl(228.5, 77.2%, 51.5%)" stroke-width="1.5"></path><path d="M1291.54 188.25L1291.54 188.25" stroke="hsl(228.5, 77.2%, 51.5%)" stroke-width="1.5"></path><path d="M1291.54 188.25L1451.38 219.82" stroke="hsl(228.5, 77.2%, 51.5%)" stroke-width="1.5"></path><path d="M1240.54 412.44L1240.54 412.44" stroke="hsl(228.5, 77.2%, 51.5%)" stroke-width="1.5"></path><path d="M1240.54 412.44L1149.05 251.13" stroke="hsl(228.5, 77.2%, 51.5%)" stroke-width="1.5"></path><path d="M1240.54 412.44L1291.54 188.25" stroke="hsl(228.5, 77.2%, 51.5%)" stroke-width="1.5"></path><path d="M1301.06 657.19L1301.06 657.19" stroke="hsl(228.5, 77.2%, 51.5%)" stroke-width="1.5"></path><path d="M1301.06 657.19L1447.18 672.35" stroke="hsl(228.5, 77.2%, 51.5%)" stroke-width="1.5"></path><path d="M1301.06 657.19L1092.91 670.82" stroke="hsl(228.5, 77.2%, 51.5%)" stroke-width="1.5"></path><path d="M1301.06 657.19L1116.07 515.07" stroke="hsl(228.5, 77.2%, 51.5%)" stroke-width="1.5"></path><path d="M1301.06 657.19L1240.54 412.44" stroke="hsl(228.5, 77.2%, 51.5%)" stroke-width="1.5"></path><path d="M1441.71 -94.51L1441.71 -94.51" stroke="hsl(228.5, 77.2%, 51.5%)" stroke-width="1.5"></path><path d="M1441.71 -94.51L1566.94 -39.99" stroke="hsl(228.5, 77.2%, 51.5%)" stroke-width="1.5"></path><path d="M1441.71 -94.51L1413.18 65.27" stroke="hsl(228.5, 77.2%, 51.5%)" stroke-width="1.5"></path><path d="M1413.18 65.27L1413.18 65.27" stroke="hsl(228.5, 77.2%, 51.5%)" stroke-width="1.5"></path><path d="M1413.18 65.27L1292.01 87.89" stroke="hsl(228.5, 77.2%, 51.5%)" stroke-width="1.5"></path><path d="M1413.18 65.27L1451.38 219.82" stroke="hsl(228.5, 77.2%, 51.5%)" stroke-width="1.5"></path><path d="M1413.18 65.27L1291.54 188.25" stroke="hsl(228.5, 77.2%, 51.5%)" stroke-width="1.5"></path><path d="M1413.18 65.27L1295.32 -70.16" stroke="hsl(228.5, 77.2%, 51.5%)" stroke-width="1.5"></path><path d="M1451.38 219.82L1451.38 219.82" stroke="hsl(228.5, 77.2%, 51.5%)" stroke-width="1.5"></path><path d="M1451.38 219.82L1608.55 238.17" stroke="hsl(228.5, 77.2%, 51.5%)" stroke-width="1.5"></path><path d="M1447.18 672.35L1447.18 672.35" stroke="hsl(228.5, 77.2%, 51.5%)" stroke-width="1.5"></path><path d="M1566.94 -39.99L1566.94 -39.99" stroke="hsl(228.5, 77.2%, 51.5%)" stroke-width="1.5"></path><path d="M1566.94 -39.99L1413.18 65.27" stroke="hsl(228.5, 77.2%, 51.5%)" stroke-width="1.5"></path><path d="M1566.94 -39.99L1295.32 -70.16" stroke="hsl(228.5, 77.2%, 51.5%)" stroke-width="1.5"></path><path d="M1566.94 -39.99L1608.55 238.17" stroke="hsl(228.5, 77.2%, 51.5%)" stroke-width="1.5"></path><path d="M1566.94 -39.99L1451.38 219.82" stroke="hsl(228.5, 77.2%, 51.5%)" stroke-width="1.5"></path><path d="M1566.94 -39.99L1292.01 87.89" stroke="hsl(228.5, 77.2%, 51.5%)" stroke-width="1.5"></path><path d="M1608.55 238.17L1608.55 238.17" stroke="hsl(228.5, 77.2%, 51.5%)" stroke-width="1.5"></path><path d="M1608.55 238.17L1587.09 402.3" stroke="hsl(228.5, 77.2%, 51.5%)" stroke-width="1.5"></path><path d="M1608.55 238.17L1394.98 349.8" stroke="hsl(228.5, 77.2%, 51.5%)" stroke-width="1.5"></path><path d="M1587.09 402.3L1587.09 402.3" stroke="hsl(228.5, 77.2%, 51.5%)" stroke-width="1.5"></path><path d="M1587.09 402.3L1553.55 548.18" stroke="hsl(228.5, 77.2%, 51.5%)" stroke-width="1.5"></path><path d="M1553.55 548.18L1553.55 548.18" stroke="hsl(228.5, 77.2%, 51.5%)" stroke-width="1.5"></path><path d="M1553.55 548.18L1595.86 655.49" stroke="hsl(228.5, 77.2%, 51.5%)" stroke-width="1.5"></path><path d="M1553.55 548.18L1447.18 672.35" stroke="hsl(228.5, 77.2%, 51.5%)" stroke-width="1.5"></path><path d="M1553.55 548.18L1394.98 349.8" stroke="hsl(228.5, 77.2%, 51.5%)" stroke-width="1.5"></path><path d="M1553.55 548.18L1286.13 510.33" stroke="hsl(228.5, 77.2%, 51.5%)" stroke-width="1.5"></path><path d="M1595.86 655.49L1595.86 655.49" stroke="hsl(228.5, 77.2%, 51.5%)" stroke-width="1.5"></path><path d="M1595.86 655.49L1447.18 672.35" stroke="hsl(228.5, 77.2%, 51.5%)" stroke-width="1.5"></path><path d="M1595.86 655.49L1587.09 402.3" stroke="hsl(228.5, 77.2%, 51.5%)" stroke-width="1.5"></path><path d="M1595.86 655.49L1301.06 657.19" stroke="hsl(228.5, 77.2%, 51.5%)" stroke-width="1.5"></path><path d="M1595.86 655.49L1286.13 510.33" stroke="hsl(228.5, 77.2%, 51.5%)" stroke-width="1.5"></path><path d="M1595.86 655.49L1394.98 349.8" stroke="hsl(228.5, 77.2%, 51.5%)" stroke-width="1.5"></path><circle r="25" cx="-70.86" cy="550.55" fill="url(#SvgjsRadialGradient1007)"></circle><circle r="25" cx="45.98" cy="648.77" fill="url(#SvgjsRadialGradient1007)"></circle><circle r="25" cx="255" cy="515.2" fill="url(#SvgjsRadialGradient1007)"></circle><circle r="25" cx="514.66" cy="550.03" fill="url(#SvgjsRadialGradient1007)"></circle><circle r="25" cx="673.56" cy="665.7" fill="url(#SvgjsRadialGradient1007)"></circle><circle r="25" cx="841.39" cy="678.29" fill="url(#SvgjsRadialGradient1007)"></circle><circle r="25" cx="1149.05" cy="251.13" fill="url(#SvgjsRadialGradient1007)"></circle><circle r="25" cx="1161.41" cy="347.71" fill="url(#SvgjsRadialGradient1007)"></circle><circle r="25" cx="1286.13" cy="510.33" fill="url(#SvgjsRadialGradient1007)"></circle><circle r="25" cx="1394.98" cy="349.8" fill="url(#SvgjsRadialGradient1007)"></circle><circle r="5" cx="-101.67" cy="668.38" fill="#8b9ad9"></circle><circle r="5" cx="56.3" cy="500.77" fill="#8b9ad9"></circle><circle r="5" cx="210.49" cy="661.86" fill="#8b9ad9"></circle><circle r="5" cx="360.21" cy="535.33" fill="#8b9ad9"></circle><circle r="5" cx="374.54" cy="665.31" fill="#8b9ad9"></circle><circle r="5" cx="653.3" cy="510.62" fill="#8b9ad9"></circle><circle r="5" cx="805.74" cy="383.51" fill="#8b9ad9"></circle><circle r="5" cx="835.94" cy="515.36" fill="#8b9ad9"></circle><circle r="5" cx="955.82" cy="386.28" fill="#8b9ad9"></circle><circle r="5" cx="965" cy="523.68" fill="#8b9ad9"></circle><circle r="5" cx="961.63" cy="652.86" fill="#8b9ad9"></circle><circle r="5" cx="1153.59" cy="112.13" fill="#8b9ad9"></circle><circle r="5" cx="1116.07" cy="515.07" fill="#8b9ad9"></circle><circle r="5" cx="1092.91" cy="670.82" fill="#8b9ad9"></circle><circle r="5" cx="1295.32" cy="-70.16" fill="#8b9ad9"></circle><circle r="5" cx="1292.01" cy="87.89" fill="#8b9ad9"></circle><circle r="5" cx="1291.54" cy="188.25" fill="#8b9ad9"></circle><circle r="5" cx="1240.54" cy="412.44" fill="#8b9ad9"></circle><circle r="5" cx="1301.06" cy="657.19" fill="#8b9ad9"></circle><circle r="5" cx="1441.71" cy="-94.51" fill="#8b9ad9"></circle><circle r="5" cx="1413.18" cy="65.27" fill="#8b9ad9"></circle><circle r="5" cx="1451.38" cy="219.82" fill="#8b9ad9"></circle><circle r="5" cx="1447.18" cy="672.35" fill="#8b9ad9"></circle><circle r="5" cx="1566.94" cy="-39.99" fill="#8b9ad9"></circle><circle r="5" cx="1608.55" cy="238.17" fill="#8b9ad9"></circle><circle r="5" cx="1587.09" cy="402.3" fill="#8b9ad9"></circle><circle r="5" cx="1553.55" cy="548.18" fill="#8b9ad9"></circle><circle r="5" cx="1595.86" cy="655.49" fill="#8b9ad9"></circle></g><defs><mask id="SvgjsMask1005"><rect width="1440" height="560" fill="#ffffff"></rect></mask><linearGradient x1="15.28%" y1="-39.29%" x2="84.72%" y2="139.29%" gradientUnits="userSpaceOnUse" id="SvgjsLinearGradient1006"><stop stop-color="#0e2a47" offset="0"></stop><stop stop-color="#00459e" offset="1"></stop></linearGradient><radialGradient id="SvgjsRadialGradient1007"><stop stop-color="#ffffff" offset="0.1"></stop><stop stop-color="#1735b3" offset="0.2"></stop><stop stop-color="rgba(23, 53, 179, 0)" offset="1"></stop></radialGradient></defs></svg>